ply
format ascii 1.0
comment meshmixer generated
element vertex 272
property float x
property float y
property float z
property float nx
property float ny
property float nz
property uchar red
property uchar green
property uchar blue
property uchar alpha
element face 502
property list uchar int vertex_indices
end_header
0.007348626386 -0.03318149224 -0.06520084292 -0.3060624003 -0.9137268662 0.2672621608 0 0 0 255
0.003845835105 -0.03434744477 -0.07319836318 0.6469819546 -0.03329543769 -0.7617780566 0 0 0 255
0.003805333748 -0.03152839839 -0.06360687315 0.615601778 -0.3817840517 0.6894022226 0 0 0 255
-0.004687149078 -0.03562291339 -0.0641144067 -0.3844085634 -0.3564431667 0.8515740633 0 0 0 255
-0.008195076138 -0.03269615769 -0.06996895373 -0.401291877 -0.8925430775 -0.2057466358 0 0 0 255
-0.004643876106 -0.03356012702 -0.07314731926 -0.8135302067 -0.08840639889 -0.5747633576 0 0 0 255
0.003808904439 -0.04890126362 -0.06852935255 0.9919532537 -0.07804938406 0.09968440235 0 0 0 255
0.003785614157 -0.05292219669 -0.06520728022 0.7905676961 0.3841888011 -0.4768664837 0 0 0 255
-0.004678493366 -0.05299472809 -0.06839478016 -0.8095187545 0.4963544607 0.3135468662 0 0 0 255
-0.004696162418 -0.04883749411 -0.06504882872 -0.8081986904 -0.2162441611 -0.5477712154 0 0 0 255
-0.004681309685 -0.04855158553 -0.06844810396 -0.9870467782 -0.1022322997 0.1236413717 0 0 0 255
0.003814872587 -0.0552954264 -0.07166818529 0.6823698878 -0.7130254507 0.1611397564 0 0 0 255
0.003811357543 -0.06309697777 -0.07567001134 0.1565309614 -0.9774100184 0.1420129538 0 0 0 255
-0.004657549784 -0.0554081127 -0.07355109602 -0.6322546005 -0.524158895 0.5705361366 0 0 0 255
-0.004522198811 -0.06045299023 -0.07478026301 -0.5211604834 -0.1925130635 0.8314628601 0 0 0 255
-0.004629157484 -0.03029074892 -0.07561263442 -0.06050926074 -0.6007971168 -0.7971081734 0 0 0 255
0.003840688616 -0.05804275721 -0.07767612487 0.5908294916 0.01547177788 -0.8066480756 0 0 0 255
0.003834921867 -0.05414226651 -0.07548099756 0.5678958297 0.193631649 -0.8000006676 0 0 0 255
0.003785261884 -0.06305384636 -0.06666001678 0.2097893953 -0.2396638244 0.9479185939 0 0 0 255
0.003785368055 -0.05866013467 -0.06828185171 0.6192339659 0.2750086486 -0.7354723215 0 0 0 255
0.00378459692 -0.05393850803 -0.06435522437 0.2452279329 -0.7807335854 0.5747333169 0 0 0 255
0.003757294267 -0.05344029889 -0.05822908878 0.7313190699 0.002038731007 0.6820324659 0 0 0 255
0.003797795624 -0.04349656403 -0.06479031593 0.6031472683 0.2117440253 0.7690109611 0 0 0 255
0.003793833777 -0.03024940006 -0.0607817471 0.3826591671 -0.8410690427 0.3823281527 0 0 0 255
-0.004679812118 -0.06477086246 -0.07262568176 -0.2803340554 -0.6440643072 -0.7117541432 0 0 0 255
-0.004649380222 -0.05891431868 -0.07793723792 -0.2724505067 -0.1308645606 -0.9532288313 0 0 0 255
-0.004655208439 -0.05411470309 -0.0755174309 -0.3866038322 0.1427204162 -0.9111357331 0 0 0 255
-0.004701694474 -0.05606363341 -0.06574705243 -0.3709713519 -0.3687947094 0.8522738218 0 0 0 255
-0.004595166072 -0.06093136221 -0.06909903139 -0.2234293371 0.667560041 -0.7102414966 0 0 0 255
-0.004682276398 -0.05714674294 -0.06871439517 -0.3779558837 -0.6133203506 -0.6935325861 0 0 0 255
-0.004710802808 -0.05404209346 -0.06326390803 -0.7624080777 -0.6316466928 0.1405573934 0 0 0 255
-0.00473055616 -0.05286835134 -0.05863854662 -0.3213123083 0.4817690849 0.8152649403 0 0 0 255
-0.004730600864 -0.0545257777 -0.05902135372 -0.02108031698 -0.9879179001 0.1535379291 0 0 0 255
-0.004692407325 -0.04350347444 -0.06481817365 -0.8012458086 0.1828803867 0.569701612 0 0 0 255
-0.01221193001 -0.05892723799 -0.07163556665 -0.7087244987 0.3576089144 -0.6081327796 0 0 0 255
-0.01213388983 -0.0613980554 -0.07317946851 0.6569718719 0.7314149141 0.1828117371 0 0 0 255
-0.01028268412 -0.05534200743 -0.07177565992 -0.9805657864 0.0621063523 -0.1861009896 0 0 0 255
-0.004793498199 -0.04894308746 -0.06462210417 0.8437876105 -0.5222433209 -0.123630017 0 0 0 255
-0.01217549667 -0.0490998812 -0.06447130442 -0.9683819413 0.03499187902 -0.2470060289 0 0 0 255
-0.004792716354 -0.05297606438 -0.06574780494 0.5686024427 0.589469552 -0.5737742186 0 0 0 255
-0.01233818382 -0.05339817703 -0.06605426967 -0.976569593 0.2074154019 0.05736408755 0 0 0 255
-0.004779344425 -0.05120782927 -0.06967271119 0.718750298 0.1432352364 0.6803541183 0 0 0 255
-0.012451116 -0.04864680022 -0.06908510625 -0.8942905068 -0.2577920258 0.3657700717 0 0 0 255
0.005773080513 -0.04998905957 -0.0640309602 -0.7248204947 0.3497926891 -0.5935320854 0 0 0 255
0.0058091674 -0.05279337242 -0.07470044494 -0.8670767546 0.4605381489 -0.1899540424 0 0 0 255
0.0133284945 -0.05356998369 -0.06801036 0.7872665524 0.4857470989 -0.379817158 0 0 0 255
0.005804507062 -0.04740898311 -0.07135796547 -0.2536630929 0.6536741257 -0.7129973173 0 0 0 255
0.008871244267 -0.07031922787 -0.0250750035 -0.3623124957 0.929706037 0.06615372747 0 0 0 255
-0.008309885859 -0.07059589773 -0.02245269716 0.8093391657 0.3888434172 0.4401941895 0 0 0 255
-0.007769498974 -0.06916682422 -0.03499031812 0.07595800608 0.9461874366 0.3145786822 0 0 0 255
0.008367050439 -0.06918418407 -0.0349168852 -0.1360243708 0.9317772985 0.3365835249 0 0 0 255
-0.004667267203 -0.06452807039 -0.07523419708 0.8384440541 0.5187708139 0.1669981927 0 0 0 255
0.00246658735 -0.06368442625 -0.07611843199 -0.001015118789 0.8650607467 0.501666069 0 0 0 255
0.005704862997 -0.06451715529 -0.07525126636 -0.6037500501 0.7797084451 0.1659536809 0 0 0 255
0.003652939573 -0.06588120013 -0.0635419786 -0.2411999404 0.5565029979 -0.7950641513 0 0 0 255
-0.003424124792 -0.06585119665 -0.06357702613 0.2399584502 0.2300017923 -0.943143189 0 0 0 255
-0.004764435813 -0.06544226408 -0.06730198115 0.6248298287 0.7684727311 -0.1379759014 0 0 0 255
0.005693592131 -0.06558061391 -0.06615369022 -0.7956616879 0.599119544 -0.08932134509 0 0 0 255
0.008867271245 -0.06995869428 -0.02408387698 -0.862917304 0.4859625101 -0.1386151016 0 0 0 255
-0.00797277689 -0.06949024647 -0.02394826338 -0.01688865572 0.9158892632 0.4010756016 0 0 0 255
-0.006192382425 -0.06986147165 -0.02485275641 -0.07859008759 -0.3083131313 -0.9480330348 0 0 0 255
0.008860331029 -0.06966425478 -0.02248246036 -0.3794172406 0.03746128827 0.9244669676 0 0 0 255
-0.00834498927 -0.06682341546 -0.03472198173 0.6869100332 0.6879202127 0.2343510985 0 0 0 255
0.009013356641 -0.06684201956 -0.03464366123 -0.5649889708 0.7805719972 0.2673852444 0 0 0 255
-0.008275922388 -0.06557844579 -0.04552029818 0.2598933578 0.735337615 0.6258866191 0 0 0 255
0.009053908288 -0.06578788161 -0.04378677532 -0.5049651265 0.663882494 0.5516070127 0 0 0 255
-0.004764256999 -0.04554146156 -0.07025180757 0.6873159409 0.629609406 -0.3621999025 0 0 0 255
-0.01117098704 -0.04563108832 -0.07038672268 -0.3308343589 0.7855123281 -0.5229904652 0 0 0 255
-0.00473940745 -0.0527321063 -0.07472242415 0.4701466262 0.4671343267 -0.7488308549 0 0 0 255
-0.01103467401 -0.05704407021 -0.07739438117 -0.7204404473 0.05735579878 -0.6911410093 0 0 0 255
0.01326403767 -0.05857945606 -0.05480401963 0.8577958345 0.4107307494 0.3090089858 0 0 0 255
0.005781898741 -0.05529474467 -0.05700398237 -0.7461221218 0.5702285171 0.3437167704 0 0 0 255
0.005775282159 -0.04446168244 -0.06422688812 -0.1579549611 0.764985323 0.6243778467 0 0 0 255
-0.004797057714 -0.04602503031 -0.063166067 0.2769794464 0.8551512361 0.4381766319 0 0 0 255
-0.004832401872 -0.05471200123 -0.05742210895 0.3172887266 0.650957644 0.689624548 0 0 0 255
-0.01124217734 -0.04701391608 -0.0625282675 -0.3261378109 0.6951092482 0.6406693459 0 0 0 255
-0.01177569013 -0.05623636022 -0.05644140393 -0.7527461052 0.5665091872 0.3353216648 0 0 0 255
-0.005489185452 -0.05727225915 -0.05561155081 0.7664464116 0.6172302961 0.1777264625 0 0 0 255
0.01387649216 -0.04495237768 -0.06670019031 0.8397869468 0.5426920056 0.015596468 0 0 0 255
0.01331590954 -0.05698940158 -0.0772363618 0.5905040503 0.3636780083 -0.7204465866 0 0 0 255
0.004982538521 -0.05694860592 -0.07725213468 -0.9131398201 0.06280637532 -0.4027791023 0 0 0 255
0.004455663264 -0.05416588113 -0.06220622361 0.1629605144 0.4365370572 -0.884804666 0 0 0 255
-0.002521466464 -0.05415633693 -0.06225358695 0.351315707 0.6165878773 -0.7045542598 0 0 0 255
-0.004655208439 -0.06334963441 -0.07728547603 0.02687117457 0.1832227707 0.982704103 0 0 0 255
-0.00371430628 -0.059168268 -0.07756271958 0.8563821912 0.1128938869 -0.5038497448 0 0 0 255
-0.003764374182 -0.05475239083 -0.06709379703 0.9993852377 -0.03500648215 0.001921602176 0 0 0 255
0.004947910085 -0.05945382267 -0.06580509245 -0.9987633824 0.03354941308 0.03668903932 0 0 0 255
-0.005365217105 -0.06677287817 -0.05988314003 0.400306493 0.2454883605 0.882887423 0 0 0 255
0.004306543618 -0.05459996313 -0.05843771622 -0.1322290897 0.07106969506 0.9886680841 0 0 0 255
0.006337473169 -0.0669515729 -0.0583894141 -0.7458287477 0.03342172131 0.6652987599 0 0 0 255
-0.003338433802 -0.05459180102 -0.05847191811 0.2954305112 0.3084490597 0.9042013288 0 0 0 255
-0.0125481002 -0.06113836169 -0.02156309783 -0.9799085259 0.055625882 0.1915334165 0 0 0 255
-0.00829429552 -0.05879351869 -0.0231504906 0.8717594147 0.4004341662 0.2822905481 0 0 0 255
-0.01185926422 -0.05794704705 -0.02943425253 -0.2904275358 0.9564888477 0.02794519998 0 0 0 255
-0.008320100605 -0.05940110609 -0.03708418086 0.9743111134 0.2249894291 0.009881320409 0 0 0 255
0.009032668546 -0.05942563713 -0.03708042949 -0.9162425399 0.3996621966 -0.02774344012 0 0 0 255
0.01212063432 -0.0579665713 -0.0293146763 0.5346089602 0.8425816894 0.06518728286 0 0 0 255
0.008905353025 -0.05798111111 -0.02978868969 -0.9841892123 0.1762274355 -0.01776072383 0 0 0 255
-0.0123090148 -0.05598315597 -0.07430566847 -0.9256773591 -0.1958664805 -0.3236630559 0 0 0 255
-0.01233336702 -0.06015115231 -0.06877574325 -0.9981506467 -0.02271153964 -0.05638726428 0 0 0 255
-0.01242211461 -0.06757290661 -0.05105672032 -0.9999687672 0.004223539028 -0.006681420375 0 0 0 255
0.008875798434 -0.05898184329 -0.02335309237 -0.7397141457 0.4510737062 0.4993551075 0 0 0 255
-0.01177158952 -0.0594375506 -0.03724572808 -0.8245192766 0.56436342 0.04076682404 0 0 0 255
-0.003928083926 -0.0581221506 -0.04843993858 0.3476863205 0.3325092196 -0.876670897 0 0 0 255
-0.006931699812 -0.05855170637 -0.04470001161 0.2397421151 0.7310099006 0.6388648152 0 0 0 255
0.004352085292 -0.05813111365 -0.04840178043 -0.2368829548 0.7345196605 -0.6358988285 0 0 0 255
0.008985858411 -0.05856905133 -0.04462570325 -0.2342904806 0.405059129 0.8837618828 0 0 0 255
0.006319546606 -0.05782654136 -0.05121043324 -0.9553965926 0.295147568 -0.01025758404 0 0 0 255
0.01187963784 -0.05889279768 -0.04188681394 0.2969822288 0.9503247738 0.09319019318 0 0 0 255
0.00571968779 -0.06335974485 -0.07722781599 -0.06765069813 0.04625919089 -0.9966360927 0 0 0 255
-0.01056187972 -0.06666254997 -0.07316934317 -0.03679326922 -0.9905236363 -0.1323222071 0 0 0 255
-0.0109327957 -0.0718639195 -0.02805495448 -0.03018965758 -0.9934843183 -0.1098974645 0 0 0 255
0.01176869497 -0.06663990021 -0.07347270846 0.03737611696 -0.9889982343 -0.1431274414 0 0 0 255
0.01210242324 -0.07195010781 -0.02741684578 0.1104954854 -0.9901842475 -0.08559117466 0 0 0 255
0.006049023941 -0.04853329062 -0.06821165234 0.3063329458 -0.7878274918 0.5343106985 0 0 0 255
0.01271156408 -0.05943460017 -0.07289211452 0.9999944568 0.003284271341 -0.000510450569 0 0 0 255
0.01335695386 -0.06441025436 -0.07658697665 0.9287003279 -0.2711319625 -0.2529884279 0 0 0 255
0.01333291456 -0.05604381859 -0.06985124946 0.9995198846 -0.02919620089 -0.01037475839 0 0 0 255
0.01333005913 -0.06016541272 -0.06995247304 0.9990851283 0.02852412686 -0.0318640843 0 0 0 255
0.01316960715 -0.06111782044 -0.03459579498 0.9983925223 0.05579010025 0.009989663027 0 0 0 255
0.01299286634 -0.0711664483 -0.02457360923 0.9685919881 -0.236660108 0.0762989223 0 0 0 255
0.01297050901 -0.06222208589 -0.02133411542 0.8682388663 0.1679754555 0.4668463469 0 0 0 255
0.01153462753 -0.07039344311 -0.02346673422 0.09750814736 -0.6830950379 0.7237909436 0 0 0 255
-0.005450516939 -0.06795749068 -0.04960849881 0.7845103741 0.4432860613 -0.4336368442 0 0 0 255
0.003914130852 -0.06797095388 -0.04953638092 -0.05059470609 0.5946004987 -0.8024278283 0 0 0 255
0.005851608235 -0.06782731414 -0.0507915318 -0.9289861321 0.1656613052 -0.3309699297 0 0 0 255
-0.01201703399 -0.07163053751 -0.02582929656 -0.7460266948 -0.6388332844 0.1879793108 0 0 0 255
-0.01204536483 -0.06544927508 -0.07576366514 -0.5996094346 -0.5480781794 -0.5831627846 0 0 0 255
-0.01482553035 -0.01294396631 -0.05936617404 -0.9349852204 0.253713876 -0.2478546053 0 0 0 255
-0.01488244906 -0.01044672821 -0.06538321078 -0.9977240562 -0.06725842506 -0.004798314534 0 0 0 255
-0.0169011578 -0.0116702076 -0.05902041495 -0.9982977509 -0.007559794001 -0.05783130229 0 0 0 255
0.01605853625 -0.0229639858 -0.04887380451 0.9935253859 0.08244170249 0.0781705603 0 0 0 255
0.01602602564 -0.0289545022 -0.04303492606 0.7740330696 0.4397668242 0.4554975033 0 0 0 255
0.0110125076 -0.02318546362 -0.04914407432 0.2831050754 0.6681168079 0.688092649 0 0 0 255
0.007946312428 -0.04674108326 -0.01309095789 -0.7479528189 -0.2455738634 0.6166522503 0 0 0 255
0.008001510054 -0.03798140213 -0.02296792157 -0.3366796076 0.6696503162 0.6619783044 0 0 0 255
0.01220144145 -0.04562138021 -0.01535698399 0.8974754214 0.206886813 0.3895326257 0 0 0 255
0.01597672328 -0.02982221544 -0.03382380307 0.9656536579 0.1270610094 0.2266462594 0 0 0 255
0.01583110727 -0.006760531105 -0.05975954235 0.7319880128 0.5883722305 0.3435282409 0 0 0 255
0.01609363966 -0.0160939768 -0.06462509185 0.947660923 -0.1992331743 -0.249489218 0 0 0 255
-0.009199082851 -0.03189162537 -0.03312261403 0.291877836 -0.9318526983 -0.2155408859 0 0 0 255
0.008136766031 -0.03190710023 -0.0330475904 -0.260545522 -0.9059059024 0.3338420689 0 0 0 255
-0.006826814264 -0.03908066079 -0.03922311217 0.04772694036 -0.9152224064 0.4001125693 0 0 0 255
0.00816010125 -0.03910466284 -0.03914783895 -0.4716709256 -0.8138939738 -0.3392685652 0 0 0 255
-0.009199329652 -0.04034721479 -0.03773877397 0.9945495129 -0.0340186879 0.09855950624 0 0 0 255
-0.009257175028 -0.03913030773 -0.02459499985 0.7639164329 -0.5593416095 -0.3218208253 0 0 0 255
0.008018150926 -0.05262392387 -0.02321967296 -0.958717525 -0.2703115642 -0.08827418834 0 0 0 255
0.008105652407 -0.03831683844 -0.0254964456 -0.6538426876 -0.6495252848 -0.3880806863 0 0 0 255
-0.01669335365 -0.006280457601 -0.06190004945 -0.9161222577 0.3975562155 0.05166318268 0 0 0 255
-0.01663513854 -0.01363284141 -0.06783358008 -0.6994908452 -0.3408136964 -0.628139019 0 0 0 255
-0.0169579871 -0.02315831557 -0.0492676869 -0.9999584556 0.00756403571 0.005086355843 0 0 0 255
-0.016888652 -0.01510727219 -0.06258590519 -0.9458857179 -0.1575663835 -0.2836776674 0 0 0 255
-0.01699066535 -0.03597724438 -0.04046972841 -0.9935783148 -0.1008573025 -0.05128303543 0 0 0 255
-0.01187609509 -0.02367618307 -0.05739217997 0.7610017657 -0.4795786738 -0.4368988276 0 0 0 255
-0.01563381404 -0.03893978149 -0.03941708058 -0.427621305 -0.7807195187 -0.4556501806 0 0 0 255
-0.01018159837 -0.03471177444 -0.0443810299 0.2254555821 -0.3836840689 -0.8955201507 0 0 0 255
0.0110054221 -0.01549600065 -0.06695355475 -0.5803393722 -0.527261138 -0.6206463575 0 0 0 255
0.0109888874 -0.03304953873 -0.0462699458 -0.9703989625 -0.1721832305 -0.1693481058 0 0 0 255
0.01505253464 -0.03876686841 -0.03951858729 0.7215226293 -0.5770127773 -0.3827027082 0 0 0 255
-0.01198444515 -0.0514020659 -0.02472338267 -0.1449336112 -0.7826989889 -0.6052904129 0 0 0 255
0.009184582159 -0.03473275527 -0.04429288208 -0.08293855935 0.2981241643 -0.9509170055 0 0 0 255
-0.009151182137 -0.04762945324 -0.02915947698 0.9853752851 -0.1286932677 -0.1116850302 0 0 0 255
-0.009183425456 -0.05256741866 -0.02331229299 0.0159343984 -0.9781647325 -0.2072193772 0 0 0 255
0.01208233461 -0.05215554312 -0.02366285957 0.7819859982 -0.5986468196 -0.1735507399 0 0 0 255
-0.01173605025 -0.004605370108 -0.06255345792 0.6861598492 0.655374825 -0.315703243 0 0 0 255
-0.01187719032 -0.01173976436 -0.05395656079 0.8847553134 0.3509481847 0.3066649735 0 0 0 255
-0.01537971944 -0.007504703477 -0.05895819888 -0.270054698 0.7477302551 0.6066052318 0 0 0 255
-0.01654332876 -0.02954861708 -0.03299147636 -0.3493749499 0.5957180858 0.7232268453 0 0 0 255
-0.01196200401 -0.02507826686 -0.03824289143 0.5600882769 0.6943163276 0.451913625 0 0 0 255
0.01095047593 -0.02610217407 -0.03696155921 -0.1667057127 0.8576186299 0.4865177572 0 0 0 255
0.01096918341 -0.008851044811 -0.05726099759 -0.9649537802 0.2245055288 0.135873124 0 0 0 255
-0.01257374883 -0.04375018924 -0.01625187322 -0.3488733768 0.6657907963 0.6595528722 0 0 0 255
-0.009415883571 -0.02608254924 -0.03705141321 0.02737457119 0.9957802892 -0.08759128302 0 0 0 255
-0.009129725397 -0.03685985133 -0.02435385808 0.1446250677 0.6964530945 0.7028774023 0 0 0 255
-0.009205789305 -0.04377064854 -0.01623517647 0.9540573955 0.09243706614 0.2850086391 0 0 0 255
-0.009213209152 -0.05173320696 -0.01648643985 0.6661472917 -0.4664788544 0.5819323659 0 0 0 255
0.01101714 -0.007620181888 -0.06720944494 0.0301871635 0.936373055 -0.3497059345 0 0 0 255
0.01230785251 -0.03902075067 -0.03669117391 0.9328731298 -0.3437304795 -0.1076898053 0 0 0 255
-0.01327644382 -0.03225259483 -0.03066649847 -0.9824017286 -0.1758669764 0.06290966272 0 0 0 255
-0.01337614283 -0.04983411357 -0.01632179692 -0.9722678661 -0.2241859287 0.06660244614 0 0 0 255
-0.01335509866 -0.03997393698 -0.0363535434 -0.9909738302 -0.1066440195 0.0812272802 0 0 0 255
-0.01194740925 -0.02861265466 -0.04272536933 0.987863183 0.1545262337 0.01574599929 0 0 0 255
-0.0119108744 -0.02316080965 -0.04924822226 0.9999895692 -0.001235635253 0.004395729396 0 0 0 255
0.01097832061 -0.02873619273 -0.04270512983 -0.988756597 0.1178520471 -0.09203967452 0 0 0 255
-0.01685468853 -0.02987762541 -0.03394352645 -0.9846509695 0.1311120242 0.1152044907 0 0 0 255
-0.01172047108 -0.01444518473 -0.0682246238 0.9457466006 -0.09133102745 -0.311804533 0 0 0 255
0.01408616826 -0.008002636954 -0.06527065486 0.8670061827 0.1111935675 -0.485732764 0 0 0 255
0.01404382195 -0.01511626504 -0.06037435681 0.9198560119 0.2013595849 -0.3366292119 0 0 0 255
-0.01244382933 -0.04696907103 -0.02120171487 0.2245451659 0.9158354402 0.3329037428 0 0 0 255
-0.008278023452 -0.04699376971 -0.02394362539 -0.6303919554 0.7247374058 0.2781396806 0 0 0 255
-0.007396090776 -0.0492868945 -0.01822998002 -0.9976696372 0.06480626017 0.02134248987 0 0 0 255
-0.007278308272 -0.04258017242 -0.02487798966 -0.664837122 0.3507290483 -0.6595306396 0 0 0 255
-0.007078294177 -0.04131702334 -0.02154762484 -0.469805479 0.8726884127 -0.1330327988 0 0 0 255
0.007964931428 -0.04858564958 -0.02687748708 0.9914224744 -0.009718333371 -0.1303342879 0 0 0 255
0.007950089872 -0.05265727267 -0.0199263636 0.9983016253 -0.0516016297 0.02703891136 0 0 0 255
0.008892372251 -0.04749215394 -0.02408098802 0.9032791853 -0.1586461216 -0.3986453116 0 0 0 255
0.007210616022 -0.04433352128 -0.02617202699 0.1247881949 0.3905412853 -0.9120885134 0 0 0 255
0.008451802656 -0.04134016857 -0.02181467786 0.3092645109 0.9423549175 -0.1277601719 0 0 0 255
0.008863124996 -0.04829221219 -0.01801621541 0.9036188722 -0.1348070949 0.4065710306 0 0 0 255
0.01302619278 -0.04720040411 -0.02017843537 0.9976975322 0.06644769758 0.01357709989 0 0 0 255
-0.0008408781141 -0.05535263568 -0.006506207399 0.07861018181 -0.7793583274 0.621627748 0 0 0 255
0.001137206331 -0.05045901239 -0.006524082273 0.4478298128 0.7401983142 0.5015524626 0 0 0 255
0.002487709746 -0.05403761193 -0.006494988687 0.663321197 -0.2655699253 0.6996268034 0 0 0 255
-0.00234589912 -0.0489458777 -0.01143996883 -0.5527611971 0.7842472792 -0.2818000913 0 0 0 255
-0.001775141805 -0.05173954368 -0.006520355586 -0.9071046114 0.1014821678 0.4084881544 0 0 0 255
0.004773141816 -0.05367089063 -0.01119052898 0.9948918819 -0.08791258931 -0.04961391538 0 0 0 255
-0.001711785793 -0.05707891658 -0.01120605785 -0.6638666391 -0.7473413944 -0.02760172449 0 0 0 255
3.252178431e-05 -0.05567143857 -0.01497835945 -0.289832592 -0.4701914191 0.8336169124 0 0 0 255
0.001564750448 -0.05102407932 -0.01498993859 0.123323828 0.1854325682 0.9748876691 0 0 0 255
-0.007319312543 -0.05939774215 -0.03085199557 -0.9929563999 0.07024484128 -0.09541108459 0 0 0 255
-0.007376074791 -0.05882491171 -0.01826720312 -0.8417299986 -0.4605521262 0.2817486227 0 0 0 255
-0.008267339319 -0.06195757538 -0.02984637395 -0.993939817 -0.01978545263 -0.1081301868 0 0 0 255
-0.008149757981 -0.06618635356 -0.03247748688 -0.955390811 0.1047641113 -0.2761392891 0 0 0 255
-0.006559085101 -0.06302323937 -0.03295684233 -0.06266839057 0.08339176327 -0.9945443869 0 0 0 255
0.007966993377 -0.05816148221 -0.0303245727 0.9844157696 0.08651904017 -0.153101325 0 0 0 255
0.008904296905 -0.06082537025 -0.02877033129 0.9695676565 0.1877034903 0.1571813226 0 0 0 255
0.007930705324 -0.06004070118 -0.01993157156 0.689391613 -0.4243070185 0.5871139169 0 0 0 255
-0.008111078292 -0.06974388659 -0.0288542863 -0.264314115 -0.9387931824 0.2209195495 0 0 0 255
-0.007402181625 -0.06763884425 -0.02261064015 -0.1812722087 -0.6644932628 0.7249752283 0 0 0 255
0.00722948648 -0.0675752461 -0.02255876735 0.1082251519 -0.7551008463 0.6466142535 0 0 0 255
0.008690435439 -0.06888431311 -0.03127382323 0.4911219776 -0.7904245257 -0.3660987318 0 0 0 255
0.007216678932 -0.06275935471 -0.032795351 0.08632924408 0.2348543853 -0.9681893587 0 0 0 255
0.007892305031 -0.05800174177 -0.01493411046 0.4115063846 -0.4423026443 0.7968882322 0 0 0 255
0.007803697139 -0.04131434113 -0.01500084717 0.6306667328 0.5043435097 0.5898279548 0 0 0 255
-0.006308353972 -0.06062436104 -0.02005100809 0.03435045853 -0.3932754695 0.9187787771 0 0 0 255
-0.007385831326 -0.05807166919 -0.01500243973 -0.670776844 -0.389272958 0.6312883496 0 0 0 255
-0.007241908461 -0.04129199311 -0.0150688244 -0.4556517303 0.8901538849 -0.002753323177 0 0 0 255
0.001767368987 -0.04287425801 -0.02523058839 -0.01361768786 0.5973973274 -0.8018297553 0 0 0 255
-0.006559990346 -0.05664464831 -0.03066548705 -0.0407746844 0.3559687436 -0.9336078763 0 0 0 255
0.01303912327 -0.06445582956 -0.02715005539 0.08075014502 0.4814704061 0.8727346063 0 0 0 255
0.008877754211 -0.06675662845 -0.02549572103 0.9487341642 -0.004922430031 0.31603688 0 0 0 255
-0.008294608444 -0.06550315022 -0.02480053529 -0.9847612381 -0.1737382412 -0.007768448442 0 0 0 255
-0.01243356988 -0.0634470582 -0.02733618394 -0.05396965891 -0.8168736696 -0.5742862225 0 0 0 255
-0.01010287553 -0.0400063917 -0.01508658845 -0.1151880994 0.9781028032 -0.1733395457 0 0 0 255
-0.01025654376 -0.03987261653 0.01839144342 -0.4645982087 0.8849058151 0.03301852942 0 0 0 255
-0.01011431962 -0.0446075201 -0.01361191459 -0.9387670159 -0.3436010778 0.02558824047 0 0 0 255
-0.008912935853 -0.04603273049 -0.01503354684 -0.09182266146 -0.9957385659 0.00856452994 0 0 0 255
-0.007374219596 -0.04620160162 -0.01504981797 -0.9165350795 -0.1118626967 -0.3839924335 0 0 0 255
0.00790833123 -0.04608450085 -0.01498093084 0.7605625391 -0.08676028997 -0.6434417367 0 0 0 255
0.010650062 -0.04002870992 -0.01499199495 0.2293644696 0.9519421458 -0.202973187 0 0 0 255
-0.007376398891 -0.0580749549 -0.01500237361 -0.6832028031 -0.7302241921 0.002567684511 0 0 0 255
0.009373571724 -0.0460527055 -0.01494296174 0.4755459428 -0.8779686689 -0.05501890928 0 0 0 255
0.007884280756 -0.05809466913 -0.0149330087 0.3914037645 -0.9202039838 0.005263255443 0 0 0 255
0.01063878089 -0.04470843822 -0.01361957472 0.9924561381 -0.122060284 -0.01149411593 0 0 0 255
0.01049813814 -0.04432676733 0.01753283106 0.9452373981 -0.3194517493 0.06690929085 0 0 0 255
0.01050392073 -0.03989958763 0.01731455512 0.2034957856 0.9790737033 0.002024203306 0 0 0 255
0.008780971169 -0.03988361359 0.02084205113 0.2648786902 0.4408253729 0.85762012 0 0 0 255
0.008980102837 -0.04588939622 0.02086401172 0.03380372003 -0.986166656 0.1622733623 0 0 0 255
-0.007415816188 -0.03986617923 0.02077282406 -0.05776165426 0.4898968041 0.8698647618 0 0 0 255
-0.007285259664 -0.04503288865 0.02078827284 -0.3441290557 -0.9234156013 0.1699378043 0 0 0 255
-0.006656628102 -0.05805619061 -0.008772742003 -0.06104566529 -0.9562650919 0.2860603631 0 0 0 255
0.00786251016 -0.05805609003 -0.007966462523 0.8920769691 -0.4426907897 0.09068378061 0 0 0 255
0.008136855438 -0.04598405585 0.001966182841 0.06662507355 0.9962632656 0.05495959893 0 0 0 255
-0.007738955319 -0.04596711323 0.001859689248 -0.03344669938 0.9982936978 0.04786462709 0 0 0 255
-0.007420431357 -0.05727295205 -0.007491092663 -0.9846887589 -0.1223206669 0.1242000386 0 0 0 255
-0.00743394345 -0.04791454226 -0.002301488305 -0.9985383749 -0.029959362 0.0449843742 0 0 0 255
-0.007415547967 -0.04680352286 -0.0004101043451 -0.135489136 -0.5930695534 0.7936694622 0 0 0 255
0.007829954848 -0.04675976932 -0.0002546268806 0.5999726653 -0.5418931842 0.588544488 0 0 0 255
0.00714298524 -0.05688944086 -0.006375920959 0.01138243917 -0.5843400955 0.8114290237 0 0 0 255
0.004140391946 -0.05550962314 -0.005572866648 -0.9371256828 0.08272575587 0.3390455544 0 0 0 255
0.002412909642 -0.04876090586 -0.01122186612 -0.4955063164 -0.8684050441 0.0186061915 0 0 0 255
0.004075566307 -0.05565841869 -0.01118657552 -0.6096363664 0.7824837565 0.1267384887 0 0 0 255
0.002847355092 -0.04918587953 -0.002089684829 -0.5112978816 -0.243741408 -0.8241144419 0 0 0 255
-0.003289449727 -0.05619013309 -0.01121797599 0.9897308946 -0.001126673655 0.142938599 0 0 0 255
-0.006687797606 -0.05229088292 -0.003868425265 -0.5684557557 -0.5652181506 0.5978180766 0 0 0 255
-0.00325166434 -0.05008346587 -0.002617512364 0.6813096404 -0.7297275662 0.05757490173 0 0 0 255
-0.00342053757 -0.05589745939 -0.005704645533 0.4956383705 -0.6451436281 0.5814914703 0 0 0 255
-0.003448102623 -0.05063177645 -0.01124083437 0.7931012511 -0.6087399721 0.02063966915 0 0 0 255
0.003811357543 -0.06309697777 -0.07567001134 -0.1790710092 0.8431553841 -0.5069739223 255 255 255 255
-0.004764435813 -0.06544226408 -0.06730198115 0.9956488013 -0.09317360073 0.001458254759 255 255 255 255
-0.00473940745 -0.0527321063 -0.07472242415 -0.001190059702 0.9935150743 0.113694191 255 255 255 255
0.01602602564 -0.0289545022 -0.04303492606 0.9999857545 -0.0002312295546 0.005330622662 255 255 255 255
3 0 2 1 
3 6 8 7 
3 9 10 6 
3 6 10 8 
3 11 13 12 
3 13 14 12 
3 15 1 5 
3 12 16 11 
3 16 17 11 
3 18 19 20 
3 19 11 6 
3 7 19 6 
3 11 17 6 
3 20 19 7 
3 7 6 21 
3 20 7 21 
3 21 6 22 
3 6 17 1 
3 6 1 22 
3 22 1 2 
3 14 25 24 
3 13 25 14 
3 13 26 25 
3 27 29 28 
3 8 13 29 
3 10 13 8 
3 10 26 13 
3 8 29 27 
3 8 27 30 
3 9 8 30 
3 31 9 30 
3 31 30 32 
3 33 10 9 
3 33 9 31 
3 5 26 10 
3 33 5 10 
3 3 5 33 
3 17 26 1 
3 1 26 5 
3 17 16 25 
3 26 17 25 
3 25 12 24 
3 25 16 12 
3 18 20 27 
3 27 20 30 
3 32 30 20 
3 32 21 31 
3 32 20 21 
3 22 33 31 
3 22 31 21 
3 22 2 3 
3 33 22 3 
3 2 23 3 
3 28 29 19 
3 29 13 11 
3 28 19 268 
3 29 11 19 
3 9 7 8 
3 7 9 6 
3 4 5 3 
3 34 36 35 
3 37 39 38 
3 38 39 40 
3 40 39 41 
3 40 41 42 
3 43 45 44 
3 44 45 46 
3 47 49 48 
3 47 50 49 
3 51 53 52 
3 54 56 55 
3 57 53 51 
3 57 56 54 
3 58 60 59 
3 61 58 59 
3 48 49 62 
3 63 65 64 
3 63 64 62 
3 66 68 67 
3 68 69 67 
3 70 72 71 
3 73 75 74 
3 75 76 74 
3 74 76 77 
3 46 72 78 
3 79 80 44 
3 79 44 46 
3 81 54 55 
3 81 55 82 
3 83 84 51 
3 85 84 68 
3 57 54 81 
3 44 80 86 
3 57 80 53 
3 86 57 71 
3 71 57 81 
3 44 86 71 
3 87 89 88 
3 88 89 71 
3 90 87 88 
3 77 87 90 
3 91 48 92 
3 93 92 94 
3 95 97 96 
3 69 68 84 
3 40 42 98 
3 40 98 99 
3 100 38 40 
3 35 98 100 
3 99 35 100 
3 40 99 100 
3 97 101 96 
3 94 102 93 
3 103 77 104 
3 94 104 102 
3 104 77 102 
3 103 104 105 
3 105 104 106 
3 107 105 106 
3 108 107 106 
3 108 106 95 
3 80 79 109 
3 69 84 83 
3 110 112 111 
3 111 112 113 
3 114 79 78 
3 45 79 114 
3 115 116 79 
3 117 79 45 
3 45 78 70 
3 116 115 118 
3 70 117 45 
3 70 118 117 
3 70 116 118 
3 116 70 119 
3 120 116 119 
3 121 120 119 
3 95 63 97 
3 48 62 94 
3 95 106 65 
3 63 95 65 
3 64 65 106 
3 104 64 106 
3 94 64 104 
3 62 64 94 
3 122 59 48 
3 48 94 92 
3 121 101 61 
3 97 47 58 
3 101 97 58 
3 101 58 61 
3 103 123 77 
3 105 124 103 
3 124 123 103 
3 89 125 107 
3 107 125 105 
3 125 124 105 
3 107 71 89 
3 123 87 77 
3 37 41 66 
3 41 68 66 
3 37 66 73 
3 74 39 37 
3 74 37 73 
3 68 41 39 
3 72 46 114 
3 71 43 44 
3 72 114 43 
3 72 43 71 
3 77 90 74 
3 90 82 74 
3 81 82 90 
3 88 81 90 
3 71 81 88 
3 74 82 270 
3 50 47 63 
3 63 47 97 
3 62 49 63 
3 49 50 63 
3 59 60 48 
3 51 52 83 
3 109 83 52 
3 109 53 80 
3 109 52 53 
3 58 47 60 
3 48 60 47 
3 100 91 102 
3 102 77 76 
3 76 100 102 
3 38 100 76 
3 93 102 91 
3 75 38 76 
3 75 42 38 
3 67 75 73 
3 67 42 75 
3 73 66 67 
3 92 93 91 
3 67 98 42 
3 69 98 67 
3 91 100 126 
3 126 111 113 
3 126 120 122 
3 48 91 126 
3 122 48 126 
3 69 100 98 
3 127 100 69 
3 116 69 83 
3 69 116 127 
3 127 126 100 
3 110 127 112 
3 127 111 126 
3 110 111 127 
3 119 108 96 
3 95 96 108 
3 108 70 71 
3 70 108 119 
3 108 71 107 
3 121 119 96 
3 78 72 70 
3 78 79 46 
3 96 101 121 
3 120 126 113 
3 121 61 122 
3 121 122 120 
3 116 109 79 
3 116 83 109 
3 112 127 116 
3 113 112 116 
3 116 120 113 
3 124 87 123 
3 125 89 124 
3 59 122 61 
3 56 82 55 
3 45 43 78 
3 43 114 78 
3 45 114 46 
3 41 37 42 
3 42 37 38 
3 117 115 79 
3 98 36 99 
3 36 98 35 
3 36 35 99 
3 118 115 117 
3 86 80 57 
3 85 269 51 
3 85 51 84 
3 128 130 129 
3 131 133 132 
3 134 136 135 
3 131 137 271 
3 131 138 137 
3 139 138 131 
3 132 139 131 
3 140 142 141 
3 142 143 141 
3 144 140 145 
3 146 147 143 
3 147 141 143 
3 130 148 129 
3 148 149 129 
3 150 130 151 
3 150 151 152 
3 151 129 152 
3 153 155 154 
3 156 158 157 
3 154 155 159 
3 159 155 142 
3 144 159 142 
3 142 155 143 
3 155 160 143 
3 144 161 159 
3 159 161 162 
3 160 157 158 
3 160 158 143 
3 146 143 163 
3 164 166 165 
3 165 166 167 
3 168 165 167 
3 138 170 169 
3 168 167 171 
3 172 168 171 
3 172 171 173 
3 173 171 174 
3 169 172 173 
3 135 169 173 
3 134 135 146 
3 161 145 173 
3 162 161 174 
3 161 173 174 
3 175 162 174 
3 170 138 176 
3 169 160 172 
3 160 155 172 
3 163 177 136 
3 178 180 179 
3 171 178 179 
3 153 182 181 
3 182 153 165 
3 181 182 168 
3 182 165 168 
3 183 169 133 
3 183 133 157 
3 133 169 157 
3 145 140 147 
3 147 140 141 
3 157 160 183 
3 183 160 169 
3 172 155 168 
3 168 155 181 
3 155 153 181 
3 144 142 140 
3 150 152 184 
3 156 157 170 
3 170 157 169 
3 164 165 185 
3 185 165 153 
3 161 144 145 
3 135 147 146 
3 135 173 147 
3 147 173 145 
3 180 178 154 
3 159 180 154 
3 167 152 154 
3 149 154 152 
3 162 180 159 
3 162 179 180 
3 175 179 162 
3 174 171 179 
3 174 179 175 
3 130 150 184 
3 148 130 184 
3 148 184 166 
3 164 148 166 
3 164 149 148 
3 149 152 129 
3 185 149 164 
3 153 154 149 
3 153 149 185 
3 178 167 154 
3 184 167 166 
3 178 171 167 
3 184 152 167 
3 177 163 143 
3 158 177 143 
3 137 158 139 
3 134 163 136 
3 146 163 134 
3 186 176 138 
3 156 176 186 
3 156 186 139 
3 139 158 156 
3 169 136 137 
3 136 177 137 
3 169 135 136 
3 137 177 158 
3 137 138 169 
3 130 128 151 
3 128 129 151 
3 139 187 138 
3 187 186 138 
3 187 139 186 
3 188 190 189 
3 191 189 192 
3 190 189 191 
3 193 195 194 
3 196 195 193 
3 196 197 195 
3 198 199 197 
3 195 199 198 
3 200 202 201 
3 203 204 201 
3 205 203 201 
3 201 202 205 
3 203 207 206 
3 206 207 205 
3 205 207 208 
3 209 211 210 
3 209 212 211 
3 213 212 209 
3 214 216 215 
3 217 219 218 
3 217 220 219 
3 213 221 220 
3 214 193 194 
3 216 214 194 
3 222 216 194 
3 222 194 223 
3 224 218 219 
3 224 216 210 
3 216 222 210 
3 210 222 225 
3 203 208 207 
3 208 225 207 
3 207 225 222 
3 208 207 222 
3 223 208 222 
3 223 197 226 
3 197 192 226 
3 227 196 228 
3 192 227 191 
3 192 197 227 
3 221 213 228 
3 221 228 196 
3 190 191 209 
3 226 192 190 
3 190 209 210 
3 190 210 225 
3 226 190 225 
3 224 210 218 
3 228 213 209 
3 191 228 209 
3 191 227 228 
3 224 219 216 
3 214 220 221 
3 214 196 193 
3 221 196 214 
3 196 227 197 
3 229 215 230 
3 230 215 216 
3 220 215 230 
3 219 230 216 
3 220 230 219 
3 215 220 214 
3 231 232 211 
3 211 212 217 
3 231 211 217 
3 231 217 218 
3 210 231 218 
3 210 211 231 
3 200 206 205 
3 205 208 203 
3 200 205 202 
3 206 200 204 
3 204 203 206 
3 200 201 204 
3 197 199 195 
3 194 195 198 
3 223 198 197 
3 194 198 223 
3 190 192 189 
3 233 235 234 
3 235 233 236 
3 236 233 237 
3 233 239 238 
3 237 233 238 
3 238 239 241 
3 241 239 243 
3 244 243 245 
3 243 239 245 
3 244 245 246 
3 246 248 247 
3 248 249 247 
3 245 234 248 
3 245 233 234 
3 245 239 233 
3 246 245 248 
3 250 240 242 
3 250 242 251 
3 238 241 252 
3 249 236 247 
3 253 252 241 
3 247 236 241 
3 236 253 241 
3 237 240 254 
3 255 237 254 
3 256 237 255 
3 251 238 257 
3 251 242 238 
3 258 250 251 
3 258 259 250 
3 260 261 259 
3 262 260 259 
3 259 261 250 
3 261 263 250 
3 264 266 265 
3 262 259 258 
3 264 262 258 
3 264 265 262 
3 253 256 257 
3 252 253 257 
3 256 264 258 
3 257 256 258 
3 258 251 257 
3 250 254 240 
3 254 250 266 
3 254 266 264 
3 264 255 254 
3 264 256 255 
3 236 237 253 
3 253 237 256 
3 252 257 238 
3 244 241 243 
3 244 247 241 
3 247 244 246 
3 234 249 248 
3 249 235 236 
3 234 235 249 
3 250 263 266 
3 266 263 265 
3 263 267 265 
3 267 260 265 
3 265 260 262 
