ply
format ascii 1.0
comment meshmixer generated
element vertex 283
property float x
property float y
property float z
property float nx
property float ny
property float nz
property uchar red
property uchar green
property uchar blue
property uchar alpha
element face 536
property list uchar int vertex_indices
end_header
-0.00460957177 0.03136596829 -0.0653347075 -0.9999890924 0.001075326232 -0.004542458337 0 0 0 255
0.003916243091 0.0313597694 -0.07314179093 0.6976528764 -0.05301602185 -0.7144716978 0 0 0 255
-0.004591997713 0.04918031394 -0.06481833756 -0.7446964383 0.5671414137 -0.3518206477 0 0 0 255
-0.00454304181 0.05023334548 -0.07550894469 -0.7115185261 0.02726287208 -0.7021382451 0 0 0 255
0.003917785361 0.04880059138 -0.06936935335 0.9887217879 0.1389312744 0.0559220612 0 0 0 255
-0.004567802418 0.05103397742 -0.06986260414 -0.5317262411 -0.7221873999 0.4423941374 0 0 0 255
0.003905698657 0.05367334932 -0.06564760208 0.946732223 0.2266453952 0.2287575305 0 0 0 255
-0.004582827911 0.05356397107 -0.06589758396 -0.5518336296 0.6299732924 0.5464552045 0 0 0 255
0.003920624033 0.05558912829 -0.06926140189 0.8366858959 0.2912438214 -0.4638250768 0 0 0 255
-0.0045602303 0.05495697632 -0.06994318962 -0.5960621238 0.7856652141 0.1656505167 0 0 0 255
0.003956303 0.05953274667 -0.07787279785 0.3827358186 0.9226180315 0.04784650728 0 0 0 255
-0.004547892138 0.06092210859 -0.07782246172 -0.6286738515 0.05352734029 -0.7758247256 0 0 0 255
0.003816246986 0.05998433009 -0.07537339628 0.1088119224 -0.8697060943 0.4814263284 0 0 0 255
0.003961790353 0.0634508878 -0.07079584152 0.8063797951 -0.5860345364 -0.07946782559 0 0 0 255
-0.00451461086 0.06147368252 -0.07052270323 -0.3000390828 -0.5368382931 -0.788531065 0 0 0 255
-0.004564354196 0.03142178431 -0.07526803762 -0.6753149629 -0.008679236285 -0.737478435 0 0 0 255
-0.004602335393 0.02121506631 -0.06932885945 -0.9999890924 0.001073219115 -0.004539253656 0 0 0 255
-0.004556005821 0.06407882273 -0.06937711686 -0.2760783434 0.8561277986 0.4368363023 0 0 0 255
-0.004537347704 0.05370756984 -0.07593799382 -0.6899110079 -0.1528925747 -0.7075638771 0 0 0 255
-0.004618450999 0.05446891487 -0.05790507421 -0.6557899714 0.05628156289 0.7528425455 0 0 0 255
-0.004597574472 0.04329990223 -0.06514310092 -0.4746927023 -0.2805805802 0.834231019 0 0 0 255
-0.004610337317 0.03483559936 -0.06434087455 -0.8174005747 0.1572405845 0.5541946292 0 0 0 255
-0.004626050591 0.03117944673 -0.06174620241 -0.692163825 0.4196783602 0.5871791244 0 0 0 255
-0.004631621763 0.02503478527 -0.06197398156 -0.999989152 0.001073660213 -0.004538422916 0 0 0 255
0.00396085158 0.06333274394 -0.07539074868 0.117597267 0.9038738608 -0.4113185704 0 0 0 255
0.00391808711 0.0601442568 -0.06673362851 0.2064898014 0.3819595277 0.9008156657 0 0 0 255
0.003952754661 0.05367110297 -0.0758959502 0.5458596945 -0.1502293944 -0.8242986798 0 0 0 255
0.003892522305 0.04330682009 -0.06509399414 0.8591829538 -0.1663650274 0.483867079 0 0 0 255
0.003871617839 0.05449229479 -0.05784292519 0.4121695459 0.05708187819 0.9093173146 0 0 0 255
0.00388091593 0.03553228825 -0.06437889487 0.3700374961 0.1873248369 0.9099349976 0 0 0 255
0.005131255835 0.04978761077 -0.06438964605 -0.8851431012 0.1129840761 -0.4513936937 0 0 0 255
0.01268178131 0.0530240424 -0.06579176337 0.9679211378 -0.2498346269 0.02667185292 0 0 0 255
0.005161922425 0.05188080668 -0.07476630807 -0.7084476948 -0.6122728586 -0.3510324359 0 0 0 255
0.005156250671 0.0504584536 -0.06992217153 -0.5101883411 -0.2104815245 0.8339096904 0 0 0 255
-0.01297525316 0.04801001027 -0.06566825509 -0.7380417585 0.6745755672 0.01556221582 0 0 0 255
-0.005452651065 0.0466391854 -0.06302557141 0.4141999483 -0.7398335934 0.5301741362 0 0 0 255
-0.01297734305 0.05311642215 -0.06619069725 -0.7889378667 -0.4825378954 -0.3804395497 0 0 0 255
-0.005431959406 0.05288503692 -0.06610097736 0.790609479 -0.5015004873 -0.3513316214 0 0 0 255
-0.005417447537 0.05134817585 -0.06965912879 0.3541022241 -0.6921004653 0.6289741993 0 0 0 255
-0.01295244414 0.05166692287 -0.0697542727 -0.7800077796 0.09573292732 0.6184036732 0 0 0 255
-0.0055258926 0.04844914377 -0.06893952936 0.5915910602 0.6339487433 0.4981254935 0 0 0 255
-0.008898373693 0.07038828731 -0.02571809664 0.5433254242 -0.8362731934 0.07378769666 0 0 0 255
0.008270552382 0.07036983222 -0.02563995495 -0.795180738 -0.5996890664 -0.08978135139 0 0 0 255
0.008311104029 0.06915679574 -0.0354699865 -0.2413600385 -0.9100807309 0.3368951976 0 0 0 255
-0.008855469525 0.06917539984 -0.03554682434 0.7035832405 -0.6672136188 0.2445333749 0 0 0 255
0.004526686389 0.06313893199 -0.07658620924 0.005703188013 -0.8514968157 0.5243287086 0 0 0 255
-0.005273915827 0.06303528696 -0.07752387226 0.780952394 -0.4453473687 0.4379258752 0 0 0 255
-0.001704895869 0.06361290812 -0.07667906582 -0.03046831675 -0.8286188841 0.5589833856 0 0 0 255
-0.005280598998 0.06420150399 -0.07580803335 0.07850193977 -0.97910887 0.1875720769 0 0 0 255
0.005094582215 0.06419034302 -0.07576087117 -0.1177249029 -0.9766567349 0.1796733588 0 0 0 255
-0.00309535861 0.06564295292 -0.06409757584 0.1138059273 -0.3535080254 -0.9284827709 0 0 0 255
0.003943355754 0.06562746316 -0.06408456713 -0.8002192974 -0.1434517503 -0.5822977424 0 0 0 255
0.005110993981 0.06522782147 -0.06734611094 -0.2554378808 -0.93553406 0.2439826131 0 0 0 255
-0.005278173834 0.06541449577 -0.06597781926 0.4912423491 -0.8707580566 -0.02148033492 0 0 0 255
0.002111837268 0.06966087967 -0.02462590113 -0.1398846209 -0.9676430225 -0.2099983096 0 0 0 255
-0.007621753961 0.06996504217 -0.0252796784 0.001690325909 -0.8243576884 -0.5660667419 0 0 0 255
-0.006500121672 0.06550113112 -0.0460345149 0.02815603465 -0.9041619897 0.4262608588 0 0 0 255
0.008404260501 0.06681610644 -0.03518026322 -0.1954226941 -0.9534596205 0.2296185344 0 0 0 255
0.008439643309 0.06548558176 -0.04596240446 -0.4530260861 -0.4258252382 0.7832242846 0 0 0 255
-0.008953068405 0.06683470309 -0.03525967151 0.2424637228 -0.8558443189 0.456882745 0 0 0 255
-0.008911974728 0.06571559608 -0.0443283692 0.956616044 -0.1287894696 0.2613407075 0 0 0 255
0.01122336276 0.05647690222 -0.07762019336 0.2591203153 -0.3422940075 -0.9031563997 0 0 0 255
0.004155322909 0.0533182025 -0.07569272816 -0.8419438004 -0.2604889572 -0.4725210369 0 0 0 255
0.005153864622 0.04723864794 -0.07185761631 -0.8559203744 -0.2742786109 -0.4383737445 0 0 0 255
0.01147203706 0.0450351797 -0.07045653462 0.3663002253 -0.7732519507 -0.5175960064 0 0 0 255
-0.01301995665 0.0577197969 -0.05583705008 -0.9268485904 -0.3114953339 0.2095766813 0 0 0 255
-0.005450908095 0.05458974838 -0.05782583728 0.8428445458 -0.3064574003 0.4423764348 0 0 0 255
-0.006087195128 0.05674957484 -0.0564169623 0.6819863319 -0.6968514323 0.2220196724 0 0 0 255
0.005116173998 0.04480441287 -0.06413193047 -0.3345208764 -0.7797092795 0.5292912126 0 0 0 255
0.005097029731 0.05460938439 -0.05775782093 -0.8511866927 -0.2499703914 0.46151492 0 0 0 255
0.01121884771 0.0570981279 -0.05610890687 0.1436396241 -0.8473801017 0.5111894011 0 0 0 255
-0.005433892366 0.04464732111 -0.06904952228 0.3343952 -0.834141314 -0.4386207163 0 0 0 255
-0.005391435698 0.0524007529 -0.07513521612 0.7933267355 -0.4047744274 -0.4547421038 0 0 0 255
-0.01198802143 0.04854038358 -0.07275061309 -0.2283238918 -0.5154735446 -0.8259268999 0 0 0 255
-0.0130120106 0.04413164034 -0.0664974153 -0.722150445 -0.6526452899 0.2292440087 0 0 0 255
-0.004533385858 0.05629539862 -0.07762999833 0.8923341632 -0.1633792669 -0.4207694232 0 0 0 255
-0.00532906875 0.05453276262 -0.06759285182 0.9961188436 -0.06333300471 0.06112447381 0 0 0 255
-0.004188090563 0.05393883213 -0.06267799437 -0.2351225913 -0.5805211663 -0.779559195 0 0 0 255
0.003096191213 0.05393334478 -0.06262670457 -0.5941167474 -0.1874278188 -0.7822378874 0 0 0 255
0.004201635718 0.06133336946 -0.0782662183 -0.8341846466 0.02691017278 -0.5508283377 0 0 0 255
0.004117615521 0.05834795907 -0.06599055231 -0.9851760864 -0.03815862164 0.1672484726 0 0 0 255
0.005099767819 0.06304225326 -0.07767981291 -0.06853505224 0.196649 -0.9780757427 0 0 0 255
-0.005826551467 0.06122942269 -0.07830514014 0.3031401634 0.003269401379 -0.9529403448 0 0 0 255
-0.004566399381 0.0630633086 -0.06847031415 0.9992389083 0.03793060407 0.009101657197 0 0 0 255
-0.00394512713 0.05440292135 -0.05891083926 0.05560577288 -0.02989944257 0.9980050325 0 0 0 255
-0.004843415692 0.06657615304 -0.06040956452 0.6185504794 -0.3571542501 0.6998829246 0 0 0 255
-0.006091229618 0.06784665585 -0.05012992024 0.5599722266 -0.6760812402 -0.4789000154 0 0 0 255
0.003666138276 0.05439485237 -0.05887533724 -0.1112422496 -0.3673827946 0.9233932495 0 0 0 255
0.004021715373 0.06656583399 -0.06037571281 -0.276738286 -0.5525013208 0.7862303853 0 0 0 255
0.005744012538 0.05738599598 -0.05405461788 -0.6475381255 -0.7569337487 0.08800923824 0 0 0 255
0.005733456463 0.06734975427 -0.05400002003 -0.9909314513 -0.1248425171 -0.04969153926 0 0 0 255
0.01276996825 0.04860363156 -0.07093885541 0.9826307893 0.09399375319 -0.1600058973 0 0 0 255
0.01270444505 0.05801739916 -0.07117582858 0.9999836087 0.00205678842 0.005339296069 0 0 0 255
0.01271911897 0.05687581748 -0.07507660985 0.9986421466 0.008245836012 0.05143841356 0 0 0 255
0.01271667704 0.06174589321 -0.07201100141 0.9999504685 -7.877232565e-05 0.00995477289 0 0 0 255
0.0127458293 0.06435768306 -0.07771317661 0.980040729 0.08927480131 -0.1776235998 0 0 0 255
0.01264338568 0.05817487836 -0.05698604882 0.991663456 -0.1119888499 0.06373435259 0 0 0 255
0.01256531663 0.05971314758 -0.03910122067 0.9725083709 -0.232666567 0.009680403396 0 0 0 255
0.01248477772 0.07088740915 -0.02460216358 0.9887014031 0.1269963682 0.07963301241 0 0 0 255
0.01240189746 0.05865361914 -0.02558993734 0.8844568729 -0.3396860063 0.3199210465 0 0 0 255
-0.008897334337 0.05726920813 -0.03195136786 0.9043242335 -0.4261794984 0.02384705655 0 0 0 255
-0.01290091127 0.05883804336 -0.02407663502 -0.783212781 -0.4787910283 0.3966571689 0 0 0 255
-0.008925028145 0.0620983243 -0.02185987122 0.7292541265 -0.2219889313 0.6472320557 0 0 0 255
0.008261064067 0.05818167701 -0.02641595155 -0.8281242251 -0.5556056499 0.0742469281 0 0 0 255
0.008359959349 0.0593867898 -0.03749519587 -0.9116571546 -0.4087642729 0.04234344512 0 0 0 255
0.007113972679 0.0584648028 -0.0451040417 -0.2422088534 -0.7885642052 0.5652444959 0 0 0 255
0.003763843328 0.05800585449 -0.04886767268 -0.3747208416 -0.3312796652 -0.8659319282 0 0 0 255
-0.004255145788 0.05802422762 -0.04890802503 0.1444287151 -0.756922543 -0.6373449564 0 0 0 255
-0.01195828244 0.05941259488 -0.03771579638 -0.2604321539 -0.9609775543 0.09325917065 0 0 0 255
-0.006082948297 0.0577797778 -0.05083054304 0.754650712 -0.6518278718 -0.07498466223 0 0 0 255
-0.00669579953 0.05847939849 -0.04516883194 0.1001297385 -0.211596176 0.97221452 0 0 0 255
-0.008921228349 0.05872628465 -0.04319755733 0.9436101317 -0.142619893 0.2987632453 0 0 0 255
-0.008942652494 0.05940692872 -0.03762962669 0.97657305 -0.2126137912 -0.03317223862 0 0 0 255
0.01084061153 0.06640298665 -0.07315935194 0.004076110199 0.9924229383 -0.1228011772 0 0 0 255
-0.01119540632 0.06642671674 -0.07325938344 -0.008398824371 0.9921657443 -0.1246458963 0 0 0 255
0.01114800945 0.06633281708 -0.07358886302 0.1517070085 0.9630052447 -0.2227238268 0 0 0 255
-0.00652834028 0.06482749432 -0.07660861313 -0.03924182802 0.652859807 -0.7564616203 0 0 0 255
0.01064438559 0.07189323753 -0.02866881713 0.002498422517 0.9925398827 -0.121894829 0 0 0 255
-0.0112413168 0.07191677392 -0.02876824699 0.001057505491 0.9925057888 -0.1221928746 0 0 0 255
-0.00893708691 0.06974633038 -0.02355896682 0.1170504913 0.6135397553 0.7809405327 0 0 0 255
-0.01315157488 0.07097586989 -0.02380667068 -0.9944034219 0.0624593012 0.08520957083 0 0 0 255
-0.01149854064 0.07195010781 -0.02839852311 -0.1056866199 0.99251616 -0.06117207184 0 0 0 255
0.01110658608 0.07193826139 -0.0279773213 0.3500406146 0.9365138412 -0.02033305168 0 0 0 255
-0.01291950792 0.05687637627 -0.07423492521 -0.9328357577 -0.3470575511 0.09679118544 0 0 0 255
-0.01293272898 0.06166772917 -0.07379610091 -0.9999805689 0.003402899485 -0.005218595732 0 0 0 255
-0.01295357198 0.05777140707 -0.06989721954 -0.9995258451 -0.03078007884 0.0008105443558 0 0 0 255
-0.01286925003 0.06411647797 -0.08023815602 -0.9365125895 0.1236705035 -0.3281001747 0 0 0 255
-0.01313105598 0.06182644889 -0.0304929819 -0.9746165276 -0.2238637954 -0.002756806556 0 0 0 255
0.00824836269 0.06468400359 -0.02188856713 -0.1919966638 -0.2858802974 0.93883425 0 0 0 255
0.00360060297 0.06783673167 -0.05008178949 -0.2241777629 -0.7795375586 -0.5848637223 0 0 0 255
0.008566148579 0.06968465447 -0.02356695943 -0.02758418396 0.3948385417 0.9183363318 0 0 0 255
-0.003585280851 0.06373110414 -0.07574650645 -0.003399361391 -0.8349775672 0.5502735376 0 0 0 255
0.01164344698 0.04583951831 -0.06358093023 0.6951025128 -0.5518517494 0.4607517123 0 0 0 255
0.01215022244 0.06563849747 -0.07537309825 0.4522296488 0.8519935608 -0.2638093531 0 0 0 255
0.01166368648 0.07146462053 -0.02551634423 -0.003040539799 0.87657547 0.4812548459 0 0 0 255
-0.01245319564 0.07188028097 -0.02691333741 -0.3972556889 0.9096264243 0.1215221211 0 0 0 255
-0.01196630672 0.06605839729 -0.07473422587 -0.201957643 0.9098489881 -0.3624747097 0 0 0 255
-0.0116238445 0.05870754272 -0.072410658 0.7355361581 -0.6623418927 0.1424421221 0 0 0 255
-0.01176204532 0.02395903319 -0.0500896126 0.9969617724 0.04309679195 0.06488373131 0 0 0 255
-0.01176849287 0.02249252051 -0.04901636764 0.9959061146 -0.06550549716 0.06228998303 0 0 0 255
-0.01680641994 0.02292834036 -0.05091428012 -0.9933684468 -0.08701579273 0.07514890283 0 0 0 255
0.01617710665 0.02955031022 -0.04177491367 0.9731272459 0.1728503257 -0.1521385312 0 0 0 255
0.01617834158 0.0358973071 -0.04068425298 0.9819839001 0.1886780113 0.01040475909 0 0 0 255
0.01618489623 0.02758730948 -0.04395454377 0.9836720228 0.1354659945 -0.1184834689 0 0 0 255
0.01620431431 0.02303449437 -0.04930524528 0.9999887943 -0.001098588225 0.004598633386 0 0 0 255
0.01626959816 0.01489690132 -0.06533827633 0.9749526978 0.0804482922 -0.2073532194 0 0 0 255
0.01623665728 0.01258695498 -0.05889835209 0.9981154203 -0.04900050908 -0.03693989292 0 0 0 255
0.016149709 0.02965175919 -0.03572193161 0.9724553227 -0.1559350193 0.1732480973 0 0 0 255
0.01595542207 0.005843501538 -0.0616954118 0.9122841358 -0.407743901 -0.03850395977 0 0 0 255
0.01419060118 0.01093611866 -0.06304998696 0.8814839721 -0.2022810876 -0.4266946912 0 0 0 255
-0.009006410837 0.03763178736 -0.03830703348 0.3919223249 -0.01496913098 0.9198765159 0 0 0 255
0.008327806368 0.03761083633 -0.03823098168 -0.2720232606 -0.1491333097 0.9506642818 0 0 0 255
-0.006446957588 0.0304809846 -0.03213914484 0.02524430491 0.06584043056 0.9975107908 0 0 0 255
-0.009057004005 0.03154338151 -0.03092275001 0.9100903869 -0.2404869497 0.337493062 0 0 0 255
-0.00904481113 0.04409884289 -0.03081070073 0.5545130372 -0.5546586514 0.6203781366 0 0 0 255
-0.009027712047 0.03986107558 -0.02127670497 0.9753928185 -0.1410335153 0.1694651842 0 0 0 255
0.008197473362 0.04211078584 -0.01857131347 -0.9506636858 -0.1739471853 0.256867528 0 0 0 255
0.008296877146 0.0321688205 -0.03009236604 -0.3790907562 -0.6730790138 0.6350234747 0 0 0 255
0.008309148252 0.04490632936 -0.02977419458 -0.835655272 -0.3329176605 0.4368593097 0 0 0 255
0.01108960435 0.006820680574 -0.05945434049 -0.9322686791 -0.3269772828 0.1547933221 0 0 0 255
0.01111039799 0.02485515364 -0.03855879232 -0.9901736975 -0.1357968301 0.03339491785 0 0 0 255
0.01497227512 0.007621126715 -0.05851676315 0.2319798917 -0.7223828435 0.6514202952 0 0 0 255
0.00816478394 0.05257149786 -0.01694812998 -0.8549348712 0.3972092867 0.333633244 0 0 0 255
0.008217198774 0.04741311818 -0.02975782193 -0.4263300002 0.7333983183 -0.5294994712 0 0 0 255
0.01241638698 0.05402057245 -0.0219396241 0.9368208051 0.3338943422 -0.104313843 0 0 0 255
-0.01683235914 0.02999969944 -0.04357873648 -0.9546188116 0.06325975806 -0.2910346389 0 0 0 255
-0.01683944464 0.03717492521 -0.03997267783 -0.9160866737 0.3622543514 -0.1719216257 0 0 0 255
-0.01677574217 0.01593315788 -0.06397365779 -0.9855756164 -0.09079717845 -0.1428163797 0 0 0 255
-0.01678003371 0.01053882577 -0.05965741724 0.867218256 -0.3089982867 -0.3904516995 0 0 0 255
-0.01682865992 0.02541046962 -0.04543302581 0.6565914154 -0.6537025571 -0.3762454391 0 0 0 255
-0.01557985693 0.006452397443 -0.06004829705 -0.6627184749 -0.6205790639 0.4191489518 0 0 0 255
-0.01163178962 0.004341800697 -0.06250803173 0.09999055415 -0.9072853923 0.4084545076 0 0 0 255
-0.01173587143 0.006242266856 -0.06516635418 -0.6503280997 -0.372322917 -0.6621548533 0 0 0 255
-0.01175736263 0.01161623932 -0.05403776467 0.8781267405 -0.3609338403 0.3140385151 0 0 0 255
-0.0118111968 0.02446138114 -0.03914807364 0.9737129211 -0.2055601031 0.09812354296 0 0 0 255
-0.01001133397 0.0260787122 -0.03726286441 0.09931825846 -0.987868607 0.1193798333 0 0 0 255
-0.01206289977 0.04346819595 -0.01712035015 -0.1284105033 -0.7067582011 0.6957036257 0 0 0 255
0.008837873116 0.02605864964 -0.03717700765 -0.07408677787 -0.9113266468 -0.4049628675 0 0 0 255
0.007119493559 0.03071380407 -0.03179072961 -0.1463924348 0.08346740156 0.9856989384 0 0 0 255
-0.01326180249 0.04815894738 -0.01516343281 -0.979639411 0.1832118183 0.08209808171 0 0 0 255
-0.01266238466 0.05258636177 -0.02382417955 -0.4356057048 0.7625741959 -0.4782554805 0 0 0 255
-0.009013015777 0.05058845133 -0.01556076575 0.8768674135 0.2916748822 0.3821377456 0 0 0 255
-0.01159455255 0.01421279088 -0.0683260113 -0.3914315403 -0.0005605290062 -0.9202070832 0 0 0 255
-0.01171465963 0.02020905539 -0.06140745804 0.9115252495 0.3128172457 -0.266958952 0 0 0 255
-0.01536908001 0.01540588029 -0.06699535251 -0.2278409451 0.7331258655 -0.6407924294 0 0 0 255
-0.009982455522 0.03465034813 -0.04465719685 0.04697561264 0.3770812452 -0.924988091 0 0 0 255
-0.01176822558 0.03299377114 -0.04658782855 0.9797344804 0.1086464599 -0.1682743281 0 0 0 255
0.01483039651 0.01552496478 -0.06668198854 0.2454093248 0.657114923 -0.7127231359 0 0 0 255
0.01120883413 0.02015312016 -0.06133956462 -0.8843092322 0.3533773422 -0.3051584065 0 0 0 255
0.01113439724 0.01535320655 -0.06690356135 -0.7419497371 0.3492310643 -0.5723183155 0 0 0 255
0.003865582868 0.0455048345 -0.03199457377 0.01036651433 0.8206519485 -0.571334362 0 0 0 255
-0.008962221444 0.04972870275 -0.02718257159 0.5554211736 0.7004022002 -0.4482678771 0 0 0 255
0.01500836294 0.03705703467 -0.04172256961 0.2854802012 0.7486787438 -0.5983152986 0 0 0 255
0.01115215011 0.0335399285 -0.04582201317 -0.8838486671 0.1665507704 -0.4371183217 0 0 0 255
0.008708311245 0.03463034332 -0.04457215965 -0.02724146657 0.4288119972 -0.9029829502 0 0 0 255
0.01237656735 0.04496727511 -0.01618753001 0.7879462838 -0.2891791761 0.5436139107 0 0 0 255
0.01113419048 0.009405464865 -0.06793101132 -0.07973147184 -0.5856568813 -0.806628108 0 0 0 255
0.01245368645 0.03271380439 -0.03127031773 0.9772612453 -0.1186480075 0.1757359803 0 0 0 255
0.01248653233 0.03915556148 -0.03697744757 0.9332618713 0.3573728204 -0.0361524187 0 0 0 255
-0.01317176968 0.0391058065 -0.03741241992 -0.9872041345 0.1369165927 0.08174245805 0 0 0 255
-0.01179005206 0.02866660058 -0.04303789884 0.9442599416 -0.1027368531 -0.3127591014 0 0 0 255
0.01115737483 0.02303992398 -0.04932817817 -0.9999893904 0.001061089686 -0.004479636438 0 0 0 255
0.01113490574 0.02854373865 -0.0428490527 -0.9900121689 0.1029593647 -0.09630839527 0 0 0 255
-0.01662770659 0.0300828144 -0.03402051702 -0.9748377204 -0.1168892309 0.1898111701 0 0 0 255
0.0151909478 0.03120358288 -0.03342488408 0.4827035964 -0.490244925 0.7257114649 0 0 0 255
-0.01469506323 0.01090111304 -0.06293857843 -0.7462335229 -0.4155332148 -0.5200651288 0 0 0 255
0.01233404316 0.04657715932 -0.02188934386 0.9809725285 -0.04279359058 0.1893714666 0 0 0 255
0.007615523413 0.04142188281 -0.02301598899 0.4600181878 -0.8809368014 -0.1110569164 0 0 0 255
0.007410557475 0.05030709878 -0.01994638145 0.9885035753 0.06676214933 0.1356592774 0 0 0 255
0.007269714028 0.04972939566 -0.02765337192 0.997924149 -0.0002899969986 -0.0643992424 0 0 0 255
0.008192142472 0.0466921702 -0.02481199801 0.8166195154 0.1358922422 -0.5609508753 0 0 0 255
-0.007476825267 0.04572515562 -0.02708173729 -0.6949566603 -0.291675508 -0.6572371125 0 0 0 255
-0.008075270802 0.05300316587 -0.01961070299 -0.9994207025 0.02420076169 -0.02392933331 0 0 0 255
-0.008984584361 0.04451534152 -0.02331058495 -0.7146986723 -0.6285204887 -0.3068677485 0 0 0 255
-0.007907129824 0.04143381119 -0.0237966124 -0.222612828 -0.9423270822 -0.249926284 0 0 0 255
-0.009004343301 0.04700443894 -0.01843513176 -0.08837132156 -0.08937659115 0.9920697212 0 0 0 255
-0.0131546706 0.04739482328 -0.0183720924 -0.8218638897 0.03301410377 0.5687265396 0 0 0 255
-0.008979242295 0.04903461412 -0.02356520481 -0.3449984491 0.8829911947 -0.3182807565 0 0 0 255
-0.01312872116 0.04615461826 -0.02434591763 -0.7734774351 -0.03474231809 -0.6328709126 0 0 0 255
-0.001731729135 0.05042004213 -0.007116002031 -0.2104023248 -0.9293251038 0.3034561872 0 0 0 255
-0.002721626544 0.05437183008 -0.006944772787 -0.6595235467 0.4792379141 0.5791024566 0 0 0 255
0.0007702410221 0.05521324277 -0.006968955975 -0.01287698094 -0.02212878875 0.9996721745 0 0 0 255
0.002175271511 0.05263645202 -0.006920109503 0.5959968567 -0.3937762976 0.6998056769 0 0 0 255
0.00413133949 0.05204057693 -0.01161670964 0.7793291211 -0.2342557311 -0.5811801553 0 0 0 255
-0.004658258986 0.05338692293 -0.01166138332 -0.7083969712 -0.5178492069 -0.4795893133 0 0 0 255
-0.002725029364 0.05503313988 -0.01543327142 0.04881692678 0.3501388729 0.9354248643 0 0 0 255
0.008180268109 0.06920485198 -0.03003956005 0.5217766166 0.8488487005 -0.0848826021 0 0 0 255
0.00734737562 0.0608227998 -0.02514662966 0.9934207797 -0.07363707572 -0.08770818263 0 0 0 255
0.01237908751 0.06393317878 -0.02767887712 -0.1307681948 -0.4900798202 -0.8618128896 0 0 0 255
-0.008679270744 0.069914639 -0.02651143819 -0.4125955701 0.8199731112 0.3967480659 0 0 0 255
-0.008801735938 0.06658747047 -0.0329233855 -0.4669934809 -0.1754518151 -0.866679728 0 0 0 255
-0.008040681481 0.06121995673 -0.02191807143 -0.9968141317 -0.001574401278 0.07974369824 0 0 0 255
-0.008250363171 0.05816641822 -0.03057412431 -0.992841959 -0.1023425087 -0.06156979129 0 0 0 255
-0.007953330874 0.04146068543 -0.01540281996 -0.7922242284 -0.6102203131 0.003457385115 0 0 0 255
-0.008056495339 0.05821878836 -0.01547038835 -0.704275012 0.5590857863 0.4375154376 0 0 0 255
0.007284371182 0.06498882174 -0.03339786455 0.5953736305 -0.1741226017 -0.7843542695 0 0 0 255
-0.007238388062 0.05678704754 -0.03115942702 -0.04665349424 -0.2920353115 -0.9552689791 0 0 0 255
0.006550524384 0.06223095953 -0.03310802951 0.03316037729 -0.3173699677 -0.947721839 0 0 0 255
0.006587460637 0.06818296015 -0.02332552709 0.2396252751 0.64813447 0.7228425741 0 0 0 255
-0.007252301555 0.0607070066 -0.02052927949 -0.05912268907 0.4839217365 0.8731118441 0 0 0 255
-0.007343340199 0.0666988641 -0.02274937183 -0.1663527787 0.5189600587 0.8384552598 0 0 0 255
0.007228385657 0.05895579234 -0.01863068715 0.5056646466 0.6249089837 0.5948042274 0 0 0 255
-0.00727885589 0.05867059529 -0.01789822057 0.03665985912 0.8944096565 0.4457436204 0 0 0 255
0.007214030251 0.05820018053 -0.01540108304 0.6251431108 0.1906015277 0.7568799257 0 0 0 255
0.001636672765 0.05131332949 -0.01539868582 -0.04310711846 -0.2492396832 0.9674819708 0 0 0 255
0.007162699476 0.04144566506 -0.01533485483 0.47620067 -0.8128377795 0.3354514241 0 0 0 255
0.006501428783 0.04420533776 -0.02646535449 0.08762761205 -0.4331863821 -0.8970345259 0 0 0 255
-0.008944451809 0.06400968879 -0.02754645236 -0.9977061152 -0.05158375576 0.04383629933 0 0 0 255
0.002176109701 0.05667004734 -0.006927314214 0.5761380792 0.7625927925 0.2941378951 0 0 0 255
-0.0007349923253 0.0576934889 -0.011658879 -0.05729046464 0.8572075367 -0.5117743611 0 0 0 255
0.009936181828 0.04015701264 -0.01531605795 0.1249354556 -0.9810419679 -0.1481476724 0 0 0 255
0.009773539379 0.04030028731 0.02052901126 0.4716332853 -0.865300715 0.1697549075 0 0 0 255
0.009931471199 0.04531617463 -0.01450153813 0.9125692844 0.4089181125 0.0018163122 0 0 0 255
0.007207615301 0.04618595541 -0.01535291597 0.2497958839 0.965085566 -0.07881508768 0 0 0 255
0.00721962424 0.05747752637 -0.01539796963 0.9908095002 0.1058911979 -0.08416383713 0 0 0 255
0.006465772167 0.05823301524 -0.01540441532 0.05135592818 0.9943082333 -0.09334723651 0 0 0 255
-0.008075226098 0.04620217159 -0.01542233303 -0.548999548 0.7066997886 -0.4462901354 0 0 0 255
-0.01081931591 0.04017937556 -0.01541004609 -0.264713943 -0.9479525089 -0.1769534498 0 0 0 255
-0.008047197014 0.05825925618 -0.0154684009 -0.4267176986 0.903657198 0.03627141565 0 0 0 255
-0.01031459123 0.04574607685 -0.01496287808 -0.9586747289 0.2827781737 -0.03129284829 0 0 0 255
-0.01097947732 0.04032255337 0.02041984536 -0.2770840824 -0.9494510293 0.1475369185 0 0 0 255
0.007450534031 0.04554508254 0.02049631067 0.2581562102 0.926105082 0.2751086652 0 0 0 255
0.006438547745 0.05825667456 -0.009219837375 0.02762399055 0.989105165 0.144595623 0 0 0 255
-0.01013886184 0.04633613303 0.01937947981 -0.1534531265 0.9842498302 0.08777503669 0 0 0 255
0.007148578763 0.04624888673 0.0003679349029 0.6384063363 -0.7513660192 0.1669922918 0 0 0 255
-0.008159380406 0.04626588896 0.0002917228849 -0.6480740905 -0.3855854571 0.6567525268 0 0 0 255
0.007185447961 0.05748338252 -0.007875266485 0.9959084988 0.0643421635 0.06345383078 0 0 0 255
-0.008096124977 0.05764582381 -0.007991408929 -0.8520674706 0.5011454821 0.1511101276 0 0 0 255
0.002710171277 0.05662960187 -0.006515745074 -0.8159689903 0.1871863902 0.5469514132 0 0 0 255
0.006424756255 0.05659673363 -0.006508815102 0.104180485 0.57498914 0.8115010262 0 0 0 255
-0.003181586042 0.0567583926 -0.00671011582 0.7723677158 -0.4873170555 0.4073943794 0 0 0 255
-0.007366418839 0.05591321364 -0.006193820387 0.004671416245 0.5877081156 0.8090595007 0 0 0 255
0.002249741927 0.04908357561 -0.01161360461 -0.7214849591 0.6643080115 0.1953313351 0 0 0 255
7.194466889e-05 0.04880573228 -0.002141108969 0.166063875 0.9477337599 -0.2724398375 0 0 0 255
-0.004906307906 0.05179897696 -0.01165689714 0.8695411086 0.4602770507 0.1790064722 0 0 0 255
-0.004770906642 0.05161098763 -0.003741320921 0.9027189612 0.4207955003 0.08960798383 0 0 0 255
0.0009498987347 0.05850857869 -0.01165704709 -0.2197002769 -0.9299435616 0.2948503196 0 0 0 255
0.003638243303 0.05175200477 -0.003787693102 -0.6370677352 0.5295226574 0.5601342916 0 0 0 255
0.00639398396 0.04847594351 -0.001930068829 0.02819178067 0.5910400152 0.8061494827 0 0 0 255
0.00877818279 0.0402976051 0.01958464459 -0.6588214636 -0.2874681354 0.6952096224 0 0 0 255
0.005161922425 0.05188080668 -0.07476630807 0.470923692 -0.6442596316 -0.6026278734 255 255 255 255
0.005161922425 0.05188080668 -0.07476630807 -0.9832161069 0.0493302308 -0.1756492257 255 255 255 255
0.008180268109 0.06920485198 -0.03003956005 0.9861009121 -0.1451644599 -0.08082270622 255 255 255 255
3 2 4 3 
3 3 4 5 
3 4 6 5 
3 5 6 7 
3 8 10 9 
3 9 10 11 
3 10 12 11 
3 12 13 11 
3 11 13 14 
3 17 11 14 
3 11 18 9 
3 17 14 7 
3 14 9 7 
3 9 5 7 
3 9 18 5 
3 7 2 19 
3 19 2 20 
3 5 18 3 
3 2 3 20 
3 20 3 21 
3 3 15 0 
3 3 0 21 
3 21 0 22 
3 22 0 23 
3 0 16 23 
3 12 24 13 
3 12 10 24 
3 8 13 25 
3 8 26 10 
3 4 8 6 
3 4 26 8 
3 6 8 25 
3 27 4 6 
3 27 6 28 
3 1 26 4 
3 27 1 4 
3 29 1 27 
3 15 3 1 
3 18 26 3 
3 3 26 1 
3 25 17 7 
3 13 17 25 
3 24 17 13 
3 24 11 17 
3 10 11 24 
3 26 11 10 
3 26 18 11 
3 25 7 6 
3 28 6 7 
3 28 7 19 
3 20 27 28 
3 20 28 19 
3 20 21 29 
3 27 20 29 
3 29 21 22 
3 13 8 14 
3 14 8 9 
3 4 2 6 
3 7 6 2 
3 30 32 31 
3 32 33 31 
3 34 36 35 
3 35 36 37 
3 37 36 38 
3 36 39 38 
3 39 40 38 
3 41 43 42 
3 41 44 43 
3 45 47 46 
3 47 48 46 
3 49 47 45 
3 50 52 51 
3 53 48 49 
3 53 49 52 
3 53 52 50 
3 41 55 54 
3 56 58 57 
3 59 60 56 
3 59 56 57 
3 280 62 61 
3 63 32 64 
3 280 61 64 
3 65 35 66 
3 65 66 67 
3 68 70 69 
3 71 73 72 
3 35 74 71 
3 73 75 72 
3 72 75 76 
3 77 50 78 
3 50 51 78 
3 49 79 52 
3 80 62 280 
3 52 80 280 
3 81 79 49 
3 66 53 77 
3 53 50 77 
3 46 82 81 
3 83 46 53 
3 46 48 53 
3 76 83 53 
3 66 76 53 
3 84 85 66 
3 66 85 67 
3 85 86 67 
3 87 88 84 
3 88 85 84 
3 89 90 69 
3 90 88 69 
3 69 88 87 
3 61 62 79 
3 91 93 92 
3 31 91 30 
3 31 91 92 
3 93 91 94 
3 94 91 95 
3 31 92 96 
3 92 94 96 
3 94 95 96 
3 96 95 97 
3 97 95 98 
3 99 97 98 
3 100 102 101 
3 103 104 97 
3 89 70 105 
3 106 89 105 
3 105 70 104 
3 106 105 107 
3 67 109 108 
3 107 105 110 
3 109 107 110 
3 108 109 110 
3 108 110 111 
3 108 111 112 
3 89 69 70 
3 113 115 114 
3 82 116 81 
3 79 81 95 
3 113 114 117 
3 117 114 118 
3 119 120 102 
3 117 118 121 
3 117 121 122 
3 39 74 34 
3 123 124 74 
3 123 74 39 
3 125 123 39 
3 125 39 36 
3 120 126 124 
3 65 34 74 
3 65 125 36 
3 65 36 34 
3 65 124 125 
3 65 120 124 
3 127 100 101 
3 120 65 127 
3 120 127 101 
3 59 44 112 
3 112 111 60 
3 59 112 60 
3 56 60 110 
3 110 60 111 
3 105 58 110 
3 58 56 110 
3 104 58 105 
3 57 58 104 
3 43 104 42 
3 42 104 103 
3 128 42 103 
3 100 112 44 
3 100 44 41 
3 102 100 41 
3 102 41 119 
3 129 90 106 
3 106 90 89 
3 107 86 106 
3 86 129 106 
3 86 107 109 
3 109 67 86 
3 33 32 63 
3 30 63 68 
3 69 32 30 
3 69 30 68 
3 37 38 72 
3 40 72 38 
3 40 71 72 
3 66 35 37 
3 71 40 35 
3 66 37 72 
3 87 78 69 
3 66 72 76 
3 77 78 87 
3 84 77 87 
3 66 77 84 
3 57 43 59 
3 43 44 59 
3 104 43 57 
3 54 128 130 
3 119 41 54 
3 119 54 130 
3 46 81 45 
3 49 45 81 
3 49 48 131 
3 131 47 49 
3 47 131 48 
3 55 41 42 
3 128 54 42 
3 54 55 42 
3 97 70 96 
3 70 97 104 
3 96 70 132 
3 132 70 68 
3 132 31 96 
3 132 64 31 
3 64 91 31 
3 132 68 64 
3 68 63 64 
3 103 99 128 
3 103 97 99 
3 61 91 64 
3 61 95 91 
3 98 95 133 
3 122 98 133 
3 134 98 122 
3 122 135 134 
3 98 134 130 
3 134 119 130 
3 128 98 130 
3 128 99 98 
3 122 113 117 
3 122 115 113 
3 95 61 79 
3 116 95 81 
3 116 133 95 
3 133 115 122 
3 133 136 115 
3 108 127 65 
3 100 127 108 
3 100 108 112 
3 108 65 67 
3 65 74 35 
3 73 71 74 
3 101 102 120 
3 82 75 73 
3 126 73 74 
3 126 74 124 
3 135 122 121 
3 119 134 135 
3 120 119 135 
3 114 121 118 
3 135 121 114 
3 126 82 73 
3 136 133 116 
3 136 116 82 
3 126 136 82 
3 136 114 115 
3 136 135 114 
3 126 135 136 
3 126 120 135 
3 129 88 90 
3 86 88 129 
3 86 85 88 
3 51 281 78 
3 40 39 34 
3 40 34 35 
3 33 91 31 
3 33 63 91 
3 91 63 30 
3 92 93 94 
3 124 123 125 
3 123 137 125 
3 83 82 46 
3 75 82 83 
3 75 83 76 
3 80 79 62 
3 80 52 79 
3 138 140 139 
3 141 143 142 
3 144 142 143 
3 144 146 145 
3 147 144 143 
3 147 141 142 
3 147 143 141 
3 147 146 144 
3 148 149 146 
3 148 146 147 
3 142 144 145 
3 150 152 151 
3 153 150 154 
3 155 153 154 
3 156 158 157 
3 158 151 157 
3 159 161 160 
3 162 164 163 
3 165 166 140 
3 166 167 140 
3 140 167 168 
3 169 140 165 
3 140 168 165 
3 165 168 167 
3 170 172 171 
3 170 171 173 
3 173 174 170 
3 174 175 170 
3 170 175 176 
3 176 175 153 
3 153 175 152 
3 176 153 155 
3 175 177 152 
3 152 177 178 
3 177 160 161 
3 178 177 157 
3 177 161 157 
3 179 181 180 
3 182 184 183 
3 185 186 184 
3 186 183 184 
3 187 189 188 
3 185 191 190 
3 191 185 180 
3 187 188 192 
3 188 193 192 
3 193 194 192 
3 192 194 163 
3 163 194 190 
3 194 185 190 
3 195 162 156 
3 162 163 156 
3 176 155 181 
3 180 181 191 
3 181 155 191 
3 196 148 159 
3 189 196 159 
3 194 177 185 
3 177 175 185 
3 171 172 182 
3 195 197 164 
3 164 197 198 
3 180 199 179 
3 174 173 139 
3 174 139 200 
3 139 173 183 
3 138 139 183 
3 200 139 186 
3 138 183 186 
3 139 138 186 
3 193 188 201 
3 202 193 201 
3 202 201 160 
3 201 188 160 
3 154 150 151 
3 154 151 158 
3 202 160 193 
3 160 177 193 
3 193 177 194 
3 185 175 200 
3 175 174 200 
3 185 200 186 
3 153 152 150 
3 152 178 151 
3 178 157 151 
3 166 165 203 
3 159 160 188 
3 163 158 156 
3 163 190 158 
3 158 190 154 
3 190 191 154 
3 154 191 155 
3 176 203 170 
3 199 203 179 
3 176 179 203 
3 179 176 181 
3 167 166 184 
3 182 167 184 
3 172 167 182 
3 170 167 172 
3 170 203 167 
3 203 165 167 
3 166 199 180 
3 184 180 185 
3 180 184 166 
3 166 203 199 
3 157 197 195 
3 157 204 197 
3 147 161 148 
3 204 161 147 
3 204 147 142 
3 204 157 161 
3 156 157 195 
3 162 195 164 
3 145 187 192 
3 196 189 187 
3 196 187 145 
3 149 196 145 
3 148 196 149 
3 148 161 159 
3 198 197 204 
3 163 198 192 
3 164 198 163 
3 142 198 204 
3 192 198 142 
3 142 145 192 
3 169 165 200 
3 143 202 141 
3 169 140 139 
3 167 205 168 
3 146 149 145 
3 206 208 207 
3 209 208 210 
3 211 213 212 
3 214 213 211 
3 215 216 213 
3 217 216 215 
3 218 216 217 
3 219 221 220 
3 219 223 222 
3 220 224 219 
3 223 225 224 
3 226 228 227 
3 231 232 211 
3 212 214 233 
3 231 211 212 
3 234 231 212 
3 234 212 233 
3 235 236 230 
3 237 236 235 
3 238 240 239 
3 238 239 241 
3 239 242 241 
3 242 234 241 
3 241 234 243 
3 244 245 243 
3 244 243 225 
3 225 243 234 
3 233 214 245 
3 214 207 245 
3 246 214 211 
3 207 214 246 
3 211 236 246 
3 236 237 246 
3 209 235 227 
3 209 227 241 
3 209 241 243 
3 208 209 243 
3 241 227 238 
3 245 208 243 
3 246 237 235 
3 209 246 235 
3 234 242 231 
3 242 239 231 
3 240 231 239 
3 236 232 230 
3 236 211 232 
3 247 232 231 
3 247 231 229 
3 230 232 247 
3 230 247 229 
3 240 229 231 
3 227 235 282 
3 238 227 226 
3 238 229 240 
3 226 229 238 
3 223 244 225 
3 221 222 248 
3 220 221 248 
3 220 249 224 
3 224 223 219 
3 249 223 224 
3 225 244 224 
3 224 244 223 
3 249 220 248 
3 248 223 249 
3 222 223 248 
3 222 221 219 
3 213 218 217 
3 213 216 218 
3 213 214 215 
3 212 217 215 
3 212 213 217 
3 212 215 214 
3 246 210 207 
3 209 210 246 
3 245 207 208 
3 206 210 208 
3 206 207 210 
3 250 252 251 
3 252 250 253 
3 254 253 255 
3 250 257 256 
3 253 250 256 
3 256 257 259 
3 260 251 261 
3 260 250 251 
3 260 257 250 
3 262 255 258 
3 261 253 263 
3 264 265 256 
3 263 253 256 
3 253 254 266 
3 264 253 266 
3 267 256 265 
3 267 258 256 
3 267 262 258 
3 267 268 262 
3 268 269 262 
3 267 270 268 
3 271 270 267 
3 272 274 273 
3 273 274 275 
3 275 274 270 
3 274 276 270 
3 270 276 268 
3 269 268 277 
3 269 277 278 
3 278 277 273 
3 275 270 271 
3 273 275 271 
3 278 273 271 
3 264 278 265 
3 265 278 271 
3 271 267 265 
3 262 266 254 
3 262 254 255 
3 266 262 269 
3 278 266 269 
3 266 278 264 
3 260 259 257 
3 263 256 259 
3 260 263 259 
3 263 260 261 
3 261 252 253 
3 251 261 279 
3 251 252 261 
3 276 272 268 
3 268 272 277 
3 277 272 273 
